<?xml version="1.0" encoding="UTF-8"?>
<svg width="88px" height="88px" viewBox="0 0 88 88" version="1.1" xmlns="http://www.w3.org/2000/svg" xmlns:xlink="http://www.w3.org/1999/xlink">
    <!-- Generator: Sketch 43.1 (39012) - http://www.bohemiancoding.com/sketch -->
    <title>Group</title>
    <desc>Created with Sketch.</desc>
    <defs></defs>
    <g id="Page-1" stroke="none" stroke-width="1" fill="none" fill-rule="evenodd">
        <g id="Desktop-HD" transform="translate(-718.000000, -619.000000)" stroke-width="2.5" stroke="#000000">
            <g id="Group" transform="translate(720.000000, 621.000000)">
                <g id="Group-6">
                    <ellipse id="Oval-6" fill="#018FF7" cx="42" cy="42.0209059" rx="42" ry="42.0209059"></ellipse>
                    <path d="M24.1998393,4.24254833 C24.1998393,4.24254833 23.2613744,5.00170653 28.5660132,7.11311033 C33.8706519,9.22451414 35.4364635,8.46874703 36.4708409,8.23887829 C37.5052183,8.00900956 38.8431939,9.99310401 39.9451098,9.58452763 C41.9460866,8.84259087 46.1143285,7.52467405 48.0124691,6.94134795 C48.8730543,6.67687761 52.5035833,6.79468281 55.4129133,6.36354727 C58.9205153,5.8437534 66.7755716,7.18184912 61.7127733,4.79112662 C56.6499749,2.40040412 50.2035309,0.0297865185 42,0.0297865185 C33.7964691,0.0297865185 24.1998393,4.24254833 24.1998393,4.24254833 Z" id="Path-3" fill="#7AE1BA"></path>
                    <path d="M7.31259694,19.2346597 C7.31259694,19.2346597 9.50718627,22.1369588 13.769003,22.8877113 C18.0308198,23.6384638 22.8532512,22.1574184 25.3782731,21.2496563 C31.9204937,18.8976845 18.8364094,36.1588909 19.4305678,43.3200356 C20.0247263,50.4811804 25.6671978,50.583877 21.5388043,52.9088766 C17.4104108,55.2338762 12.6436338,47.9556944 12.6436338,47.9556944 C12.6436338,47.9556944 8.35859294,45.4341769 7.96803807,50.583877 C7.57748319,55.7335771 4.38653048,58.6735815 4.38653048,58.6735815 C4.38653048,58.6735815 0.698898367,49.5756935 0.212124342,44.0655386 C-0.274649682,38.5553836 1.95147286,31.1093645 1.95147286,31.1093645 L7.31259694,19.2346597 Z" id="Path-4" fill="#7AE1BA"></path>
                    <path d="M8.1078076,66.5556586 C8.1078076,66.5556586 22.0845044,59.7006312 27.6880967,62.5930196 C32.0723622,64.8560319 29.3042686,68.3170637 29.7720189,70.5197288 C30.2397692,72.7223939 29.7720189,76.1195402 29.7720189,76.1195402 C29.7720189,76.1195402 31.8965019,80.6022491 34.6277688,83.1571638 C36.1558236,84.5865554 26.0657511,81.696658 18.3434766,76.6281498 C10.6212022,71.5596416 8.1078076,66.5556586 8.1078076,66.5556586 Z" id="Path-5" fill="#7AE1BA"></path>
                    <path d="M71.5265692,12.3548347 C69.3080173,10.9981943 69.0469937,17.4691875 65.8675849,19.4698994 C62.688176,21.4706112 59.8929041,19.6356928 57.8790373,21.515051 C55.8651706,23.3944093 58.7713892,25.529564 57.1290597,27.6247683 C55.4867303,29.7199727 53.431929,28.1340094 51.1035142,30.1589349 C48.7750995,32.1838605 47.9153897,32.702245 48.0046623,35.5598775 C48.0939348,38.4175101 49.0876468,39.8870042 51.44981,41.243934 C53.8119731,42.6008639 56.3393697,42.6245979 58.0511958,41.331046 C59.7630218,40.0374941 57.2089051,37.3756394 58.4766448,35.9340631 C59.7443845,34.4924867 60.7005284,34.9640784 63.6156733,35.0035488 C66.5308181,35.0430191 68.24479,35.1220142 69.4433355,36.0825494 C70.641881,37.0430846 68.1601803,38.4259839 69.4433355,39.6739386 C70.7264908,40.9218933 73.326743,41.1852096 74.192534,40.701464 C75.0583249,40.2177184 73.8589475,40.9544251 73.387149,37.4704016 C72.9153506,33.9863781 71.0485627,32.7081552 72.8053722,30.4578874 C74.5621818,28.2076197 82.3476561,34.3071528 81.6599768,28.2045779 C81.3192675,25.1810699 78.500235,21.6830991 76.4479936,18.6624025 C74.3957522,15.6417059 72.6459442,13.0393304 71.5265692,12.3548347 Z" id="Path-6" fill="#7AE1BA"></path>
                    <path d="M70.1975934,72.7291144 C68.3115387,73.0612164 73.5735751,61.4125299 70.5753916,61.4125299 C67.5772081,61.4125299 63.4481501,58.2444628 63.4481501,58.2444628 C63.4481501,58.2444628 59.0760749,55.3395656 60.4449674,51.964735 C61.8138599,48.5899043 66.0508012,44.428096 70.9842566,44.428096 C75.9177121,44.428096 82.5417442,40.0121482 83.7093933,42.12751 C84.8770423,44.2428718 82.2101559,54.5803563 80.0161018,59.7501823 C77.8220477,64.9200083 72.0836481,72.3970125 70.1975934,72.7291144 Z" id="Path-7" fill="#7AE1BA"></path>
                </g>
            </g>
        </g>
    </g>
</svg>