<?xml version="1.0" encoding="UTF-8"?>
<svg width="34px" height="32px" viewBox="0 0 34 32" version="1.1" xmlns="http://www.w3.org/2000/svg" xmlns:xlink="http://www.w3.org/1999/xlink">
    <!-- Generator: Sketch 42 (36781) - http://www.bohemiancoding.com/sketch -->
    <title>icon_link</title>
    <desc>Created with Sketch.</desc>
    <defs></defs>
    <g id="Page-1" stroke="none" stroke-width="1" fill="none" fill-rule="evenodd">
        <g id="Desktop-HD" transform="translate(-654.000000, -273.000000)" fill="#000000">
            <g id="icon_link" transform="translate(654.000000, 272.000000)">
                <path d="M8.54,16.77 C9.818,18.048 11.698,18.496 13.408,17.986 L3.96,8.54 C3.652,8.232 3.49,7.786 3.49,7.254 C3.49,6.374 3.95,5.25 4.56,4.64 C5.36,3.84 7.53,2.954 8.54,3.958 L17.986,13.406 C18.124,12.944 18.194,12.464 18.194,11.984 C18.194,10.68 17.688,9.458 16.77,8.538 L10.364,2.134 C8.44,0.21 4.616,0.932 2.734,2.814 C1.642,3.906 0.964,5.598 0.964,7.23 C0.964,8.498 1.38,9.612 2.134,10.366 L8.54,16.77 L8.54,16.77 Z M25.46,17.23 C24.182,15.952 22.302,15.504 20.592,16.014 L30.04,25.462 C30.348,25.77 30.51,26.214 30.51,26.748 C30.51,27.628 30.05,28.752 29.44,29.362 C28.64,30.162 26.47,31.048 25.46,30.044 L16.014,20.594 C15.876,21.056 15.806,21.536 15.806,22.016 C15.806,23.32 16.312,24.542 17.23,25.462 L23.634,31.866 C25.558,33.79 29.382,33.068 31.264,31.186 C32.356,30.094 33.034,28.402 33.034,26.77 C33.034,25.502 32.618,24.388 31.864,23.634 L25.46,17.23 L25.46,17.23 Z M10.164,10.162 C9.908,10.416 9.768,10.756 9.768,11.116 C9.768,11.476 9.908,11.814 10.162,12.068 L21.93,23.838 C22.456,24.362 23.31,24.362 23.836,23.838 C24.092,23.584 24.23,23.244 24.23,22.884 C24.23,22.524 24.09,22.186 23.836,21.932 L12.068,10.162 C11.544,9.638 10.688,9.638 10.164,10.162 L10.164,10.162 Z" id="Shape"></path>
            </g>
        </g>
    </g>
</svg>