<?xml version="1.0" encoding="UTF-8"?>
<svg width="30px" height="30px" viewBox="0 0 30 30" version="1.1" xmlns="http://www.w3.org/2000/svg" xmlns:xlink="http://www.w3.org/1999/xlink">
    <!-- Generator: Sketch 42 (36781) - http://www.bohemiancoding.com/sketch -->
    <title>icon_currency</title>
    <desc>Created with Sketch.</desc>
    <defs></defs>
    <g id="Page-1" stroke="none" stroke-width="1" fill="none" fill-rule="evenodd">
        <g id="Desktop-HD" transform="translate(-289.000000, -255.000000)" fill="#000000">
            <g id="icon_currency" transform="translate(289.000000, 255.000000)">
                <g id="Layer_1">
                    <path d="M15,0 C6.716,0 0,6.716 0,15 C0,23.284 6.716,30 15,30 C23.284,30 30,23.284 30,15 C30,6.716 23.284,0 15,0 L15,0 Z M15,28 C7.832,28 2,22.168 2,15 C2,7.832 7.832,2 15,2 C22.168,2 28,7.832 28,15 C28,22.168 22.168,28 15,28 L15,28 Z M16.714,8 C18.526,8 20,9.346 20,11 C20,11.552 20.448,12 21,12 C21.552,12 22,11.552 22,11 C22,8.242 19.628,6 16.714,6 L16,6 L16,5 C16,4.448 15.552,4 15,4 C14.448,4 14,4.448 14,5 L14,6 L13.286,6 C10.372,6 8,8.242 8,11 C8,13.758 10.372,16 13.286,16 L14,16 L14,22 L13.286,22 C11.474,22 10,20.654 10,19 C10,18.448 9.552,18 9,18 C8.448,18 8,18.448 8,19 C8,21.758 10.372,24 13.286,24 L14,24 L14,25 C14,25.552 14.448,26 15,26 C15.552,26 16,25.552 16,25 L16,24 L16.714,24 C19.628,24 22,21.758 22,19 C22,16.242 19.628,14 16.714,14 L16,14 L16,8 L16.714,8 L16.714,8 Z M16.714,16 C18.526,16 20,17.346 20,19 C20,20.654 18.526,22 16.714,22 L16,22 L16,16 L16.714,16 L16.714,16 Z M14,14 L13.286,14 C11.474,14 10,12.654 10,11 C10,9.346 11.474,8 13.286,8 L14,8 L14,14 L14,14 Z" id="Shape"></path>
                </g>
            </g>
        </g>
    </g>
</svg>