<?xml version="1.0" encoding="UTF-8"?>
<svg width="30px" height="30px" viewBox="0 0 30 30" version="1.1" xmlns="http://www.w3.org/2000/svg" xmlns:xlink="http://www.w3.org/1999/xlink">
    <!-- Generator: Sketch 42 (36781) - http://www.bohemiancoding.com/sketch -->
    <title>icon_phone</title>
    <desc>Created with Sketch.</desc>
    <defs></defs>
    <g id="Page-1" stroke="none" stroke-width="1" fill="none" fill-rule="evenodd">
        <g id="Desktop-HD" transform="translate(-623.000000, -262.000000)" fill="#000000">
            <g id="icon_phone" transform="translate(623.000000, 262.000000)">
                <path d="M12.216,7.064 C11.834,2.67 7.25,0.514 7.056,0.426 C6.874,0.34 6.67,0.314 6.474,0.348 C1.182,1.226 0.386,4.306 0.354,4.434 C0.31,4.614 0.318,4.8 0.374,4.974 C6.686,24.558 19.804,28.188 24.116,29.382 C24.448,29.474 24.722,29.548 24.93,29.616 C25.03,29.65 25.134,29.664 25.238,29.664 C25.38,29.664 25.522,29.634 25.652,29.574 C25.784,29.514 28.9,28.046 29.662,23.258 C29.696,23.05 29.662,22.834 29.566,22.646 C29.498,22.514 27.868,19.412 23.348,18.316 C23.032,18.234 22.708,18.318 22.464,18.526 C21.038,19.744 19.068,21.042 18.218,21.176 C12.52,18.39 9.338,13.044 9.218,12.03 C9.148,11.46 10.454,9.458 11.956,7.83 C12.146,7.624 12.242,7.344 12.216,7.064 L12.216,7.064 Z" id="Shape"></path>
            </g>
        </g>
    </g>
</svg>