<?xml version="1.0" encoding="UTF-8"?>
<svg width="32px" height="28px" viewBox="0 0 32 28" version="1.1" xmlns="http://www.w3.org/2000/svg" xmlns:xlink="http://www.w3.org/1999/xlink">
    <!-- Generator: Sketch 42 (36781) - http://www.bohemiancoding.com/sketch -->
    <title>icon_house_alt</title>
    <desc>Created with Sketch.</desc>
    <defs></defs>
    <g id="Page-1" stroke="none" stroke-width="1" fill="none" fill-rule="evenodd">
        <g id="Desktop-HD" transform="translate(-549.000000, -264.000000)" fill="#000000">
            <g id="icon_house_alt" transform="translate(549.000000, 263.000000)">
                <path d="M1.624,14.782 L4,12.882 L4,27 C4,28.104 4.896,29 6,29 L12,29 C13.104,29 14,28.104 14,27 L14,19 L18,19 L18,27 C18,28.104 18.896,29 20,29 L26,29 C27.104,29 28,28.104 28,27 L28,12.882 L30.376,14.782 C30.56,14.928 30.78,15 31,15 C31.294,15 31.584,14.872 31.782,14.624 C32.126,14.192 32.056,13.564 31.626,13.218 L16.626,1.218 C16.26,0.926 15.742,0.926 15.376,1.218 L10,5.518 L10,3 C10,1.896 9.104,1 8,1 C6.896,1 6,1.896 6,3 L6,8.718 L0.376,13.218 C-0.054,13.564 -0.124,14.192 0.22,14.624 C0.564,15.056 1.192,15.126 1.624,14.782 L1.624,14.782 Z M16,3.28 L26,11.28 L26,27 L20,27 L20,17 L12,17 L12,27 L6,27 L6,11.282 L16,3.28 L16,3.28 Z" id="Shape"></path>
            </g>
        </g>
    </g>
</svg>