<?xml version="1.0" encoding="UTF-8"?>
<svg width="387px" height="387px" viewBox="0 0 387 387" version="1.1" xmlns="http://www.w3.org/2000/svg" xmlns:xlink="http://www.w3.org/1999/xlink">
    <!-- Generator: Sketch 42 (36781) - http://www.bohemiancoding.com/sketch -->
    <title>Artboard 2</title>
    <desc>Created with Sketch.</desc>
    <defs>
        <rect id="path-1" x="5.01481481" y="117.128713" width="30.0740741" height="135.148515" rx="15.037037"></rect>
        <mask id="mask-2" maskContentUnits="userSpaceOnUse" maskUnits="objectBoundingBox" x="0" y="0" width="30.0740741" height="135.148515" fill="white">
            <use xlink:href="#path-1"></use>
        </mask>
    </defs>
    <g id="Page-1" stroke="none" stroke-width="1" fill="none" fill-rule="evenodd">
        <g id="Artboard-2" stroke="#000000">
            <g id="Group" transform="translate(92.000000, 42.000000)">
                <g id="Group-6" stroke-width="6">
                    <ellipse id="Oval-6" fill="#FFFFFF" cx="100.748148" cy="100.610561" rx="100.748148" ry="100.610561"></ellipse>
                    <path d="M58.0497379,10.157924 C58.0497379,10.157924 55.7985809,11.9755747 68.5231649,17.0309042 C81.247749,22.0862336 85.0037638,20.2767021 87.4849925,19.7263279 C89.9662213,19.1759537 93.1757108,23.9264666 95.8189485,22.9482131 C100.618823,21.1717955 110.617457,18.0163102 115.170651,16.6196539 C117.234993,15.9864331 125.943781,16.2684939 132.922581,15.236227 C141.336495,13.9916857 148.034467,11.4713837 148.034467,11.4713837" id="Path-3"></path>
                    <path d="M18.1766047,46.0834082 C18.1766047,46.0834082 22.8055098,53.0024709 33.0286085,54.799996 C43.2517073,56.597521 54.819589,53.0514574 60.8765243,50.8780045 C76.5697768,45.2466838 45.1841277,86.5751515 46.6093745,103.721064 C48.0346212,120.866977 61.5695867,121.112864 51.6665391,126.679605 C41.7634915,132.246346 30.3291116,114.820212 30.3291116,114.820212 C30.3291116,114.820212 20.0503038,108.782948 19.1134543,121.112864 C18.1766047,133.442779 10.5222577,140.482025 10.5222577,140.482025" id="Path-4"></path>
                    <path d="M19.4487286,159.354064 C19.4487286,159.354064 52.9755458,142.941088 66.4172492,149.866327 C76.9340738,155.284652 70.2940665,163.571393 71.4160898,168.845229 C72.5381131,174.119065 71.4160898,182.252845 71.4160898,182.252845 C71.4160898,182.252845 76.0948334,193.532869 82.6465018,199.650096" id="Path-5"></path>
                    <path d="M172.490638,29.5072976 C167.168852,26.2590965 165.627542,41.8264366 158.000886,46.6167365 C150.37423,51.4070364 143.669028,47.0136952 138.838234,51.5134385 C134.00744,56.0131818 140.978777,61.1253779 137.039214,66.141921 C133.09965,71.1584641 128.170664,67.3611958 122.585343,72.2094705 C117.000023,77.0577451 114.937781,78.298912 115.151924,85.1409352 C115.366068,91.9829585 117.74975,95.5013648 123.416026,98.750259 C129.082301,101.999153 135.144933,102.055979 139.251202,98.958831 C143.357471,95.8616826 137.230744,89.4884099 140.271754,86.0368468 C143.312764,82.5852837 145.606329,83.7144147 152.599078,83.8089185 C159.591827,83.9034223 163.703243,84.0925601 166.578273,86.3923673 C169.453302,88.6921745 163.500284,92.0032474 166.578273,94.9912225 C169.656261,97.9791977 175.893656,98.6096553 177.970486,97.4514242 C180.047315,96.2931932 177.17029,98.0570884 176.038556,89.7152987 C174.906822,81.373509 170.428836,78.3130627 174.64301,72.9252517 C178.857184,67.5374407 197.532711,82.1415393 195.88313,67.5301578" id="Path-6"></path>
                    <path d="M172.084374,172.954617 C172.084374,172.954617 176.485749,147.039883 169.29381,147.039883 C162.101871,147.039883 152.197229,139.454587 152.197229,139.454587 C152.197229,139.454587 141.709646,132.499398 144.993298,124.419049 C148.27695,116.338699 158.440379,106.374091 170.274581,106.374091 C182.108783,106.374091 202.779087,100.7637 202.779087,100.7637" id="Path-7"></path>
                </g>
                <g id="Group-5" transform="translate(80.696296, 201.221122)">
                    <use id="Rectangle-3" mask="url(#mask-2)" stroke-width="12" xlink:href="#path-1"></use>
                    <path d="M20.0518519,120.132013 L20.0518519,66.8234323" id="Line" stroke-width="6" stroke-linecap="square"></path>
                    <path d="M0.503703704,46.9265677 C0.503703704,57.707968 9.25570774,66.4480198 20.0518519,66.4480198 L20.0518519,66.4480198 C30.847996,66.4480198 39.6,57.707968 39.6,46.9265677" id="Oval-7" stroke-width="6"></path>
                    <path d="M0.809603014,50.5221827 C0.809603014,50.5221827 0.525207179,48.1569176 0.345120223,44.952642 C0.165033267,41.7483665 0.503703704,0.728078028 0.503703704,0.728078028" id="Line" stroke-width="6" stroke-linecap="round"></path>
                    <path d="M39.6,0.750825083 C39.6,0.750825083 39.7132553,39.465428 39.6,45.9562596 C39.4867447,52.4470911 38.1880613,54.4593149 38.1880613,54.4593149" id="Line" stroke-width="6" stroke-linecap="round"></path>
                    <path d="M20.0518519,0.750825083 L20.0518519,67.5784754" id="Line" stroke-width="6" stroke-linecap="round"></path>
                </g>
            </g>
        </g>
    </g>
</svg>