<?xml version="1.0" encoding="UTF-8"?>
<svg width="52px" height="110px" viewBox="0 0 52 110" version="1.1" xmlns="http://www.w3.org/2000/svg" xmlns:xlink="http://www.w3.org/1999/xlink">
    <!-- Generator: Sketch 42 (36781) - http://www.bohemiancoding.com/sketch -->
    <title>Group</title>
    <desc>Created with Sketch.</desc>
    <defs>
        <rect id="path-1" x="1.78571429" y="29.5082873" width="7.46268657" height="27.949256" rx="3.73134328"></rect>
        <mask id="mask-2" maskContentUnits="userSpaceOnUse" maskUnits="objectBoundingBox" x="0" y="0" width="7.46268657" height="27.949256" fill="white">
            <use xlink:href="#path-1"></use>
        </mask>
    </defs>
    <g id="Page-1" stroke="none" stroke-width="1" fill="none" fill-rule="evenodd">
        <g id="Desktop-HD" transform="translate(-694.000000, -49.000000)" stroke="#FFFFFF">
            <g id="Group" transform="translate(695.000000, 50.000000)">
                <g id="Group-6" stroke-width="1.5">
                    <ellipse id="Oval-6" cx="25" cy="25.3054074" rx="25" ry="25.3054074"></ellipse>
                    <path d="M14.4046662,2.5549048 C14.4046662,2.5549048 13.8460562,3.01207741 17.0035793,4.28358578 C20.1611023,5.55509415 21.0931331,5.09996368 21.7088339,4.96153444 C22.3245347,4.8231052 23.1209487,6.01794661 23.776851,5.77189785 C24.9679087,5.32509616 27.4490051,4.53143354 28.5788506,4.18014876 C29.0911038,4.0208821 31.2521329,4.09182556 32.983877,3.83219145 C35.0717353,3.51916641 39.7473641,4.32498096 36.7337936,2.8852641 C33.7202231,1.44554723 29.8830541,0.0179377377 25,0.0179377377 C20.1169459,0.0179377377 14.4046662,2.5549048 14.4046662,2.5549048 Z" id="Path-3"></path>
                    <path d="M4.35273628,11.5833034 C4.35273628,11.5833034 5.65903945,13.3310967 8.19583514,13.7832074 C10.7326308,14.235318 13.6031257,13.3434177 15.106115,12.7967543 C19.0002939,11.3803736 11.2121484,21.7752437 11.5658142,26.0877563 C11.9194799,30.4002689 15.2780939,30.4621138 12.8207168,31.8622517 C10.3633397,33.2623896 7.52597249,28.8793961 7.52597249,28.8793961 C7.52597249,28.8793961 4.97535294,27.3609132 4.7428798,30.4621138 C4.51040666,33.5633144 2.61103004,35.3338143 2.61103004,35.3338143 C2.61103004,35.3338143 0.416010933,29.8549757 0.126264489,26.5367055 C-0.163481954,23.2184354 1.16159099,18.7343687 1.16159099,18.7343687 L4.35273628,11.5833034 Z" id="Path-4"></path>
                    <path d="M4.82607595,40.0804795 C4.82607595,40.0804795 13.1455383,35.9523138 16.4810099,37.6941389 C19.0906918,39.0569474 17.443017,41.1412152 17.7214398,42.467682 C17.9998626,43.7941488 17.7214398,45.8399441 17.7214398,45.8399441 C17.7214398,45.8399441 18.9860131,48.539476 20.6117671,50.078071 C21.5213236,50.9388648 15.515328,49.1985399 10.9187361,46.1462339 C6.32214415,43.0939278 4.82607595,40.0804795 4.82607595,40.0804795 Z" id="Path-5"></path>
                    <path d="M42.5753388,7.44020432 C41.2547722,6.62322197 41.099401,10.5201184 39.2068958,11.724967 C37.3143905,12.9298156 35.6505381,11.8248094 34.4518079,12.9565777 C33.2530777,14.0883459 34.9829698,15.3741573 34.0053927,16.6359102 C33.0278156,17.8976631 31.8047196,16.9425803 30.4187585,18.1620105 C29.0327973,19.3814408 28.5210653,19.6936171 28.5742037,21.4145119 C28.6273421,23.1354066 29.2188374,24.0203506 30.6248869,24.8375072 C32.0309364,25.6546639 33.5353391,25.6689568 34.5542832,24.8899669 C35.5732273,24.1109771 34.0529197,22.5079818 34.8075267,21.6398501 C35.5621336,20.7717185 36.1312669,21.0557157 37.8664722,21.0794852 C39.6016775,21.1032546 40.6218988,21.1508262 41.3353188,21.7292701 C42.0487387,22.3077139 40.5715359,23.1405097 41.3353188,23.8920404 C42.0991016,24.6435711 43.6468708,24.8021428 44.1622226,24.5108264 C44.6775744,24.21951 43.9636593,24.6631621 43.6828268,22.5650485 C43.4019944,20.4669349 42.2908111,19.6971763 43.3365311,18.3420427 C44.3822511,16.9869091 49.0164619,20.6601086 48.607129,16.9850773 C48.4043259,15.1642907 46.7263304,13.0577779 45.5047581,11.2386844 C44.2831858,9.41959083 43.2416335,7.85241447 42.5753388,7.44020432 Z" id="Path-6"></path>
                    <path d="M41.7842818,43.798196 C40.6616302,43.9981911 43.7937947,36.9832362 42.0091617,36.9832362 C40.2245286,36.9832362 37.766756,35.0753947 37.766756,35.0753947 C37.766756,35.0753947 35.1643303,33.3260368 35.9791473,31.2936802 C36.7939642,29.2613236 39.3159531,26.7550412 42.2525337,26.7550412 C45.1891143,26.7550412 49.1319906,24.0957136 49.8270198,25.3696055 C50.522049,26.6434974 48.9346166,32.8688334 47.628632,35.982154 C46.3226475,39.0954746 42.9069334,43.5982009 41.7842818,43.798196 Z" id="Path-7"></path>
                </g>
                <g id="Group-5" transform="translate(19.776119, 50.610815)">
                    <use id="Rectangle-3" mask="url(#mask-2)" stroke-width="4.8" xlink:href="#path-1"></use>
                    <path d="M5.55555556,30.2154119 L5.55555556,16.8073228" id="Line" stroke-width="2.4" stroke-linecap="square"></path>
                    <path d="M0.610785359,11.8028953 C0.610785359,14.5146158 2.78253844,16.7128997 5.46153163,16.7128997 L5.46153163,16.7128997 C8.14052482,16.7128997 10.3122779,14.5146158 10.3122779,11.8028953" id="Oval-7" stroke-width="2.4"></path>
                    <path d="M0.710399843,12.7072586 C0.710399843,12.7072586 0.639264292,12.1123509 0.594219381,11.3064166 C0.549174471,10.5004824 0.633885656,0.183125021 0.633885656,0.183125021" id="Line" stroke-width="2.4" stroke-linecap="round"></path>
                    <path d="M10.3389517,0.188846324 C10.3389517,0.188846324 10.3672801,9.92628135 10.3389517,11.5588449 C10.3106233,13.1914085 9.98578536,13.6975198 9.98578536,13.6975198" id="Line" stroke-width="2.4" stroke-linecap="round"></path>
                    <path d="M5.52149964,0.188846324 L5.52149964,16.9972301" id="Line" stroke-width="2.4" stroke-linecap="round"></path>
                    <path d="M10.353192,0.353719588 L10.353192,11.3571474 C10.353192,12.3235326 9.71268053,14.1524168 9.71268053,14.1524168" id="Line" stroke-width="2.4" stroke-linecap="round"></path>
                    <polyline id="Line" stroke-width="2.4" stroke-linecap="round" points="0.594297959 0.128699542 0.594297959 11.4742526 0.751595073 13.2097411"></polyline>
                </g>
            </g>
        </g>
    </g>
</svg>